<svg xmlns="http://www.w3.org/2000/svg" viewBox="0 0 340.2 93.1"><defs><style>.cls-1{fill:#666;}</style></defs><title>builtbydl_1</title><g id="Layer_2" data-name="Layer 2"><g id="Layer_1-2" data-name="Layer 1"><path class="cls-1" d="M222.26,49a4.69,4.69,0,0,1-4.3-2.1c-.82-1.16-1-2.1-1-4.8v-25a36.05,36.05,0,0,0-.61-7.94L221.6,8c.5,1.82.5,4.47.5,7.89V40.82c0,2.93.16,3.58.72,4.09a1.82,1.82,0,0,0,1.71.38l.88,3.15A7.55,7.55,0,0,1,222.26,49Z"/><path class="cls-1" d="M249.46,49.65a6.3,6.3,0,0,1-3.69-4,9.6,9.6,0,0,1-7.84,3.64c-5.51,0-8.93-2.82-8.93-8.11,0-6.4,5.13-9.82,14.06-9.82.67,0,1.21,0,1.94.05V29.62c0-3.25-.44-5.46-4.3-5.46a15.27,15.27,0,0,0-8.5,3.14l-2.32-3.64c2.7-1.54,6.24-3.64,11.59-3.64,4,0,6.95,1.48,8,4.41.44,1.22.55,2.15.55,4.86,0,2-.22,6.23-.22,10.26,0,3.81.11,5.35,2.26,6.67Zm-6.23-14.84c-3.81,0-6.12.72-7.23,2a5.35,5.35,0,0,0-1.44,4c0,3,1.55,4.8,4.36,4.8A6.89,6.89,0,0,0,244.71,42l.16-7.06C244.11,34.86,243.66,34.81,243.22,34.81Z"/><path class="cls-1" d="M274.5,46.95a9,9,0,0,1-6,2.1,8.85,8.85,0,0,1-7.12-3.65,10.18,10.18,0,0,1-.82,3.09H255.8c.5-1.32.72-2.87.72-6.46V15.61A19.34,19.34,0,0,0,255.63,9l5.4-1.1a28.2,28.2,0,0,1,.55,6v6.4a17.09,17.09,0,0,1-.16,2.87l.16.11a9.46,9.46,0,0,1,7.23-3.09c6.57,0,10.64,5.35,10.64,14.07C279.46,39.94,277.7,44.35,274.5,46.95Zm-1.93-19.53a5.32,5.32,0,0,0-4.91-2.87A6.9,6.9,0,0,0,263.3,26a6.33,6.33,0,0,0-1.7,1.71v14a8.17,8.17,0,0,0,6,2.93,5.3,5.3,0,0,0,4.63-2.49c.89-1.54,1.55-3.86,1.55-8.11C273.73,30.4,273.51,29.13,272.57,27.42Z"/><path class="cls-1" d="M82.46,48.67a10.84,10.84,0,0,1-.5-2.6,9.22,9.22,0,0,1-7.12,3c-7.06,0-11.19-5.3-11.19-14,0-6,2-10.54,5.79-13a9.52,9.52,0,0,1,5.4-1.6,8.24,8.24,0,0,1,6.73,3.2c0-.77-.11-3-.11-4.85V0l5.07.83V39.4c0,4.47.17,7.56.77,9.27Zm-1-21.46a7.08,7.08,0,0,0-5.85-2.6,5.41,5.41,0,0,0-4.8,2.82c-1,1.82-1.43,4-1.43,7.61,0,5.35.66,6.84,2.15,8.39a5.2,5.2,0,0,0,4.08,1.43,6.54,6.54,0,0,0,5.85-3.2Z"/><path class="cls-1" d="M96.09,35.93v.66a10.37,10.37,0,0,0,1.16,5.52c1.43,2.21,3.38,2.82,6,2.82s5.12-1.49,7.1-3.26l1.93,4.07a14.1,14.1,0,0,1-9.54,3.53c-7.67,0-12.36-5.57-12.36-14.62,0-4.8.94-7.89,3.31-10.7A10.3,10.3,0,0,1,102,20.15a10,10,0,0,1,7.51,3c2.43,2.48,3.31,5.57,3.36,11.92v.88Zm9.82-10a5,5,0,0,0-4-1.93c-3.86,0-5.79,3.15-5.79,8.17h11.47A10.13,10.13,0,0,0,105.91,25.94Z"/><path class="cls-1" d="M126.54,49.45a21.06,21.06,0,0,1-10.32-2.93l2-4.27c2.65,1.49,5.53,2.87,8.62,2.87s5.22-1.25,5.22-4c0-2.37-1.44-3.75-4.63-4.36l-3.36-.66c-4.36-.88-6.73-3.59-6.73-7.67,0-5.07,4-8.6,10-8.6A17.52,17.52,0,0,1,136,22.14l-1.71,3.58a15,15,0,0,0-6.78-2c-2.92,0-4.8,1.66-4.8,4.14,0,2,1,3.09,3.92,3.75l3.59.83c5.08,1.16,7.17,4.08,7.17,7.72C137.41,45.69,133,49.45,126.54,49.45Z"/><path class="cls-1" d="M144.41,16.18a3.58,3.58,0,0,1-3.53-3.64,3.62,3.62,0,1,1,7.23,0A3.69,3.69,0,0,1,144.41,16.18Zm-2.59,32.5V21.2l5.24-.83V48.67Z"/><path class="cls-1" d="M196.87,48.67V30c0-2.49-.22-3.37-.88-4.25a3.43,3.43,0,0,0-2.82-1.11c-2,0-5,1.55-6.84,3.53V48.67h-5V28.09a15.07,15.07,0,0,0-1.05-6.56l4.8-1.32a8.77,8.77,0,0,1,.94,4.25,24.87,24.87,0,0,1,3.58-2.7,10.24,10.24,0,0,1,5.13-1.38,6.91,6.91,0,0,1,6.51,3.92,8.78,8.78,0,0,1,.66,3.48V48.67Z"/><path class="cls-1" d="M177.63,20.88l-3.93-1.08a7.69,7.69,0,0,1-2.56,3.73,8.87,8.87,0,0,0-3.84-2.66,13.48,13.48,0,0,0-4.3-.61c-6.34,0-10.59,3.7-10.59,9.27,0,3.81,2.26,6.67,6.51,7.94-3.14,1.16-5.4,2.26-5.4,4.85a3.39,3.39,0,0,0,.83,2.29l-.89,1a9,9,0,0,0-2,6.87c.73,5.49,8,6.58,12.4,6.58,6.73,0,11.64-3,11.64-8.94,0-4.3-2.93-7.61-10-7.61H161.3c-1.33,0-2-.55-2-1.38,0-1.21,2.65-2.48,4.36-3,7.23,0,9.93-4.58,9.93-8.55a8.07,8.07,0,0,0-.84-3.71,7.86,7.86,0,0,0,2.08-1A6.83,6.83,0,0,0,177.63,20.88ZM162.56,46.3c5.45,0,7.61,1.54,7.61,4.19,0,2.93-2.26,4.74-6.79,4.74a12.13,12.13,0,0,1-3-.32,5.16,5.16,0,0,1-3.09-2.09,5.54,5.54,0,0,1,.12-5c.05-.1.6-1,1-1.7C159.55,46.21,161.13,46.3,162.56,46.3Zm.38-11.64c-3.26,0-5.08-1.71-5.08-5.13s1.77-5.3,5-5.3c3.47,0,5.08,1.66,5.08,5.19S166.25,34.66,162.95,34.66Z"/><path class="cls-1" d="M24.3.5a24.3,24.3,0,0,0-2.75,48.44A7.47,7.47,0,0,1,21.29,47a7.2,7.2,0,0,1,14.38-.74A24.3,24.3,0,0,0,24.3.5Zm8,5.37a3.22,3.22,0,0,1,3.2,3.26,3.25,3.25,0,0,1-3.26,3.22,3.17,3.17,0,0,1-3.12-3.22A3.21,3.21,0,0,1,32.31,5.87Zm-7,17.67a4.22,4.22,0,0,1-4.16-4.29,4.26,4.26,0,1,1,8.51,0A4.34,4.34,0,0,1,25.35,23.54Zm9.9,12.34a5.63,5.63,0,0,1-5.55-5.72,5.68,5.68,0,1,1,11.35,0A5.79,5.79,0,0,1,35.25,35.89Z"/><path class="cls-1" d="M28.45,39.64A7.26,7.26,0,0,0,21.29,47a7.47,7.47,0,0,0,.26,1.93,24.52,24.52,0,0,0,2.75.16,24.19,24.19,0,0,0,11.38-2.83A7.26,7.26,0,0,0,28.45,39.64Z"/><path class="cls-1" d="M68.51,87.66V67h1.91v8.3a8.09,8.09,0,0,1,2.69-2.21,7.54,7.54,0,0,1,8.65,1.56A7.67,7.67,0,0,1,84,80.25a7.56,7.56,0,0,1-2.25,5.51A7.34,7.34,0,0,1,76.33,88,6.94,6.94,0,0,1,73,87.26a7.68,7.68,0,0,1-2.61-2.34v2.73Zm7.66-1.46a5.76,5.76,0,0,0,5.09-3,6.07,6.07,0,0,0,0-6,5.87,5.87,0,0,0-2.16-2.24,5.62,5.62,0,0,0-2.9-.8,6,6,0,0,0-3,.8A5.57,5.57,0,0,0,71,77.09a6.14,6.14,0,0,0-.76,3A5.93,5.93,0,0,0,72,84.46,5.62,5.62,0,0,0,76.17,86.19Z"/><path class="cls-1" d="M86.68,72.78H88.6v6.95a14.82,14.82,0,0,0,.27,3.5,3.9,3.9,0,0,0,1.57,2.16,4.75,4.75,0,0,0,2.76.79,4.65,4.65,0,0,0,2.72-.77,4,4,0,0,0,1.54-2,14.33,14.33,0,0,0,.29-3.65V72.78h2v7.3A11.55,11.55,0,0,1,99,84.72a5.48,5.48,0,0,1-2.16,2.44A6.83,6.83,0,0,1,93.2,88a6.9,6.9,0,0,1-3.63-.88A5.44,5.44,0,0,1,87.4,84.7a12,12,0,0,1-.72-4.75Z"/><path class="cls-1" d="M104.05,66.66a1.58,1.58,0,0,1,0,3.16,1.5,1.5,0,0,1-1.1-.46,1.51,1.51,0,0,1-.46-1.11,1.53,1.53,0,0,1,.46-1.12A1.5,1.5,0,0,1,104.05,66.66Zm-1,6.13H105V87.66H103.1Z"/><path class="cls-1" d="M108.15,67h1.91V87.66h-1.91Z"/><path class="cls-1" d="M115.15,67.26h1.91v5.52h3v1.65h-3V87.66h-1.91V74.44h-2.61V72.78h2.61Z"/><path class="cls-1" d="M127.59,72.78h2l4.56,10.8,4.75-10.8h.35L144,83.58l4.65-10.8h2l-6.46,14.88h-.35L139.06,77,134.3,87.66h-.36Z"/><path class="cls-1" d="M153,66.66a1.58,1.58,0,0,1,0,3.16,1.5,1.5,0,0,1-1.1-.46,1.51,1.51,0,0,1-.46-1.11,1.53,1.53,0,0,1,.46-1.12A1.5,1.5,0,0,1,153,66.66Zm-1,6.13h1.91V87.66H152Z"/><path class="cls-1" d="M159,67.26h1.91v5.52h3v1.65h-3V87.66H159V74.44h-2.61V72.78H159Z"/><path class="cls-1" d="M166.29,67h1.91v8.41a8.14,8.14,0,0,1,2.56-2.29,6.22,6.22,0,0,1,3-.76,5.28,5.28,0,0,1,3,.85,5.06,5.06,0,0,1,1.91,2.28,12.07,12.07,0,0,1,.62,4.48v7.66h-1.91v-7.1a18.15,18.15,0,0,0-.21-3.43,3.89,3.89,0,0,0-1.29-2.22,3.83,3.83,0,0,0-2.45-.75,4.72,4.72,0,0,0-3.11,1.15,5.38,5.38,0,0,0-1.81,2.84,19.63,19.63,0,0,0-.27,4v5.46h-1.91Z"/><path class="cls-1" d="M197.47,74.41l-1.23,1.27a4.42,4.42,0,0,0-3-1.49,2.27,2.27,0,0,0-1.6.62,1.9,1.9,0,0,0-.67,1.44,2.13,2.13,0,0,0,.55,1.38,7.69,7.69,0,0,0,2.3,1.57,8.6,8.6,0,0,1,2.9,2.13,3.89,3.89,0,0,1,.75,2.34,4.2,4.2,0,0,1-1.29,3.1A4.39,4.39,0,0,1,193,88a5.62,5.62,0,0,1-2.46-.56,5.33,5.33,0,0,1-1.94-1.54l1.2-1.37a4.18,4.18,0,0,0,3.11,1.65,2.8,2.8,0,0,0,2-.74,2.28,2.28,0,0,0,.81-1.74,2.23,2.23,0,0,0-.53-1.46,8.62,8.62,0,0,0-2.41-1.59A7.72,7.72,0,0,1,190,78.65a3.86,3.86,0,0,1-.73-2.31,3.76,3.76,0,0,1,1.16-2.82,4,4,0,0,1,2.92-1.12A6.06,6.06,0,0,1,197.47,74.41Z"/><path class="cls-1" d="M207.34,72.4a7.37,7.37,0,0,1,5.7,2.49,8,8,0,0,1-.12,10.82,7.86,7.86,0,0,1-11.18,0,8,8,0,0,1-.12-10.81A7.36,7.36,0,0,1,207.34,72.4Zm0,1.87a5.52,5.52,0,0,0-4.1,1.76,5.9,5.9,0,0,0-1.71,4.27,6,6,0,0,0,.78,3,5.53,5.53,0,0,0,2.11,2.15,6,6,0,0,0,5.84,0,5.54,5.54,0,0,0,2.11-2.15,6,6,0,0,0,.78-3A5.88,5.88,0,0,0,211.43,76,5.53,5.53,0,0,0,207.34,74.27Z"/><path class="cls-1" d="M217.79,67h1.91V87.66h-1.91Z"/><path class="cls-1" d="M237.94,72.78V87.66h-1.89V85.1a8.21,8.21,0,0,1-2.7,2.2,7.54,7.54,0,0,1-8.67-1.55,7.68,7.68,0,0,1-2.24-5.57,7.54,7.54,0,0,1,2.26-5.5,7.36,7.36,0,0,1,5.43-2.28,7,7,0,0,1,3.32.78,7.56,7.56,0,0,1,2.6,2.34V72.78Zm-7.65,1.46a5.77,5.77,0,0,0-5.1,3,6,6,0,0,0,0,6,5.86,5.86,0,0,0,2.16,2.23,5.65,5.65,0,0,0,2.92.8,6,6,0,0,0,3-.79,5.55,5.55,0,0,0,2.17-2.14,6.13,6.13,0,0,0,.76-3,5.92,5.92,0,0,0-1.7-4.32A5.63,5.63,0,0,0,230.29,74.24Z"/><path class="cls-1" d="M241,72.78h2V75A6.86,6.86,0,0,1,244.76,73a3.64,3.64,0,0,1,2-.64,3.5,3.5,0,0,1,1.7.51l-1,1.61a2.67,2.67,0,0,0-1-.26,2.77,2.77,0,0,0-1.85.79,5,5,0,0,0-1.35,2.44,23.38,23.38,0,0,0-.36,5.14v5h-2Z"/><path class="cls-1" d="M256.77,72.78h1.91v2.73a7.68,7.68,0,0,1,2.61-2.34,6.93,6.93,0,0,1,3.29-.78A7.35,7.35,0,0,1,270,74.68a7.54,7.54,0,0,1,2.25,5.5A7.68,7.68,0,0,1,270,85.75a7.52,7.52,0,0,1-8.65,1.55,8.23,8.23,0,0,1-2.69-2.2v8h-1.91Zm7.66,1.46A5.62,5.62,0,0,0,260.25,76a5.92,5.92,0,0,0-1.7,4.32,6.14,6.14,0,0,0,.76,3,5.52,5.52,0,0,0,2.17,2.14,6,6,0,0,0,3,.79,5.62,5.62,0,0,0,2.9-.8,5.86,5.86,0,0,0,2.16-2.23,6,6,0,0,0,0-6,5.76,5.76,0,0,0-5.09-3Z"/><path class="cls-1" d="M282.32,72.4a7.37,7.37,0,0,1,5.7,2.49,8,8,0,0,1-.12,10.82,7.86,7.86,0,0,1-11.18,0,8,8,0,0,1-.12-10.81A7.36,7.36,0,0,1,282.32,72.4Zm0,1.87a5.52,5.52,0,0,0-4.1,1.76,5.89,5.89,0,0,0-1.71,4.27,6,6,0,0,0,.78,3,5.54,5.54,0,0,0,2.11,2.15,6,6,0,0,0,5.85,0,5.54,5.54,0,0,0,2.11-2.15,6,6,0,0,0,.78-3A5.88,5.88,0,0,0,286.41,76,5.53,5.53,0,0,0,282.32,74.27Z"/><path class="cls-1" d="M291,72.78h2l4.56,10.8,4.75-10.8h.35l4.78,10.8,4.65-10.8h2l-6.46,14.88h-.36L302.51,77l-4.75,10.65h-.36Z"/><path class="cls-1" d="M328.29,82.72l1.61.85a8.8,8.8,0,0,1-1.83,2.52,7.25,7.25,0,0,1-2.34,1.46,8.16,8.16,0,0,1-2.94.5,7.11,7.11,0,0,1-5.69-2.39A8,8,0,0,1,315,80.26a8,8,0,0,1,1.74-5,7.11,7.11,0,0,1,5.9-2.82,7.34,7.34,0,0,1,6.08,2.88,8.05,8.05,0,0,1,1.64,5.09H317a6.06,6.06,0,0,0,1.66,4.25,5.28,5.28,0,0,0,4,1.66,6.38,6.38,0,0,0,2.21-.39,5.83,5.83,0,0,0,1.83-1A8.92,8.92,0,0,0,328.29,82.72Zm0-4a6.35,6.35,0,0,0-1.12-2.45,5.29,5.29,0,0,0-1.94-1.48,5.94,5.94,0,0,0-2.53-.56,5.46,5.46,0,0,0-3.76,1.41,6.36,6.36,0,0,0-1.74,3.08Z"/><path class="cls-1" d="M332.68,72.78h2V75A6.86,6.86,0,0,1,336.48,73a3.64,3.64,0,0,1,2-.64,3.5,3.5,0,0,1,1.7.51l-1,1.61a2.67,2.67,0,0,0-1-.26,2.77,2.77,0,0,0-1.85.79A5,5,0,0,0,335,77.48a23.38,23.38,0,0,0-.36,5.14v5h-2Z"/></g></g></svg>