<svg xmlns="http://www.w3.org/2000/svg" viewBox="0 0 56.96 11.45"><defs><style>.cls-1{fill:#666766;}</style></defs><title>Asset 1</title><g id="Layer_2" data-name="Layer 2"><g id="Layer_1-2" data-name="Layer 1"><path class="cls-1" d="M0,8.57V0H1V7.66H4.78v.9Z"/><path class="cls-1" d="M9.55,8.57l-.19-.91h0a2.7,2.7,0,0,1-1,.82,2.92,2.92,0,0,1-1.19.21,2.14,2.14,0,0,1-1.5-.49,1.8,1.8,0,0,1-.54-1.4q0-1.95,3.11-2l1.09,0v-.4A1.63,1.63,0,0,0,9,3.2a1.34,1.34,0,0,0-1-.36,4.24,4.24,0,0,0-1.82.49l-.3-.74a4.57,4.57,0,0,1,1-.4A4.5,4.5,0,0,1,8,2a2.45,2.45,0,0,1,1.7.51,2.13,2.13,0,0,1,.55,1.63V8.57Zm-2.2-.69a2,2,0,0,0,1.43-.5A1.84,1.84,0,0,0,9.3,6V5.41l-1,0a3.54,3.54,0,0,0-1.67.36,1.09,1.09,0,0,0-.51,1,1,1,0,0,0,.32.8A1.33,1.33,0,0,0,7.35,7.88Z"/><path class="cls-1" d="M14,2a3.81,3.81,0,0,1,.77.07l-.13.9a3.31,3.31,0,0,0-.7-.09,1.71,1.71,0,0,0-1.33.63A2.31,2.31,0,0,0,12,5.12V8.57h-1V2.14h.8L12,3.33h0a2.82,2.82,0,0,1,.86-1A1.94,1.94,0,0,1,14,2Z"/><path class="cls-1" d="M18.42,2a3.81,3.81,0,0,1,.77.07l-.13.9a3.31,3.31,0,0,0-.7-.09A1.71,1.71,0,0,0,17,3.54a2.31,2.31,0,0,0-.55,1.58V8.57h-1V2.14h.8l.11,1.19h0a2.82,2.82,0,0,1,.86-1A1.94,1.94,0,0,1,18.42,2Z"/><path class="cls-1" d="M19.37,2.14h1l1.41,3.66a13.93,13.93,0,0,1,.57,1.81h0q.08-.3.32-1t1.59-4.45h1L22.64,9.46a3.65,3.65,0,0,1-1,1.54,2,2,0,0,1-1.34.45,3.91,3.91,0,0,1-.88-.1v-.78a3.39,3.39,0,0,0,.72.07,1.49,1.49,0,0,0,1.43-1.12L22,8.6Z"/><path class="cls-1" d="M29.7,0h2.42a4.57,4.57,0,0,1,2.47.51,1.8,1.8,0,0,1,.76,1.61,1.86,1.86,0,0,1-.42,1.26A2,2,0,0,1,33.69,4v.06q2,.33,2,2.05a2.2,2.2,0,0,1-.78,1.79,3.3,3.3,0,0,1-2.17.64h-3Zm1,3.67h1.64a2.67,2.67,0,0,0,1.52-.33,1.28,1.28,0,0,0,.46-1.12,1.13,1.13,0,0,0-.52-1A3.22,3.22,0,0,0,32.16.86H30.7Zm0,.84V7.72h1.79A2.55,2.55,0,0,0,34,7.32a1.48,1.48,0,0,0,.52-1.26A1.33,1.33,0,0,0,34,4.89a2.87,2.87,0,0,0-1.63-.37Z"/><path class="cls-1" d="M40.56,8.57l-.19-.91h0a2.7,2.7,0,0,1-1,.82,2.92,2.92,0,0,1-1.19.21,2.14,2.14,0,0,1-1.5-.49,1.8,1.8,0,0,1-.54-1.4q0-1.95,3.11-2l1.09,0v-.4A1.63,1.63,0,0,0,40,3.2a1.34,1.34,0,0,0-1-.36,4.24,4.24,0,0,0-1.82.49l-.3-.74a4.57,4.57,0,0,1,1-.4A4.5,4.5,0,0,1,39,2a2.45,2.45,0,0,1,1.7.51,2.13,2.13,0,0,1,.55,1.63V8.57Zm-2.2-.69a2,2,0,0,0,1.43-.5A1.84,1.84,0,0,0,40.31,6V5.41l-1,0a3.54,3.54,0,0,0-1.67.36,1.09,1.09,0,0,0-.51,1,1,1,0,0,0,.32.8A1.33,1.33,0,0,0,38.36,7.88Z"/><path class="cls-1" d="M44.88,7.88a3.18,3.18,0,0,0,.5,0l.38-.08v.74a1.78,1.78,0,0,1-.47.13,3.5,3.5,0,0,1-.55,0q-1.86,0-1.86-2V2.9H42V2.43l.92-.4L43.29.66h.56V2.14h1.86V2.9H43.85V6.68a1.3,1.3,0,0,0,.28.89A1,1,0,0,0,44.88,7.88Z"/><path class="cls-1" d="M49.28,8.68A3,3,0,0,1,47,7.82a3.36,3.36,0,0,1-.82-2.41A3.72,3.72,0,0,1,47,2.94,2.54,2.54,0,0,1,49,2a2.42,2.42,0,0,1,1.91.79,3,3,0,0,1,.7,2.09v.62H47.21a2.55,2.55,0,0,0,.57,1.72,2,2,0,0,0,1.53.59,5.17,5.17,0,0,0,2.05-.43v.87a5.15,5.15,0,0,1-1,.32A5.48,5.48,0,0,1,49.28,8.68ZM49,2.84a1.59,1.59,0,0,0-1.23.5,2.32,2.32,0,0,0-.54,1.39h3.36a2.14,2.14,0,0,0-.41-1.41A1.44,1.44,0,0,0,49,2.84Z"/><path class="cls-1" d="M57,6.81a1.61,1.61,0,0,1-.67,1.38,3.14,3.14,0,0,1-1.87.49,4.08,4.08,0,0,1-2-.4v-.9a4.82,4.82,0,0,0,1,.37,4.15,4.15,0,0,0,1,.13,2.32,2.32,0,0,0,1.17-.24.84.84,0,0,0,.08-1.38,5.12,5.12,0,0,0-1.27-.63A6.88,6.88,0,0,1,53.15,5a1.74,1.74,0,0,1-.56-.57,1.47,1.47,0,0,1-.18-.76A1.44,1.44,0,0,1,53,2.48,3,3,0,0,1,54.79,2a5.13,5.13,0,0,1,2,.42l-.35.79a4.65,4.65,0,0,0-1.75-.4,2,2,0,0,0-1,.22.67.67,0,0,0-.35.6.73.73,0,0,0,.13.44,1.3,1.3,0,0,0,.42.35A9.49,9.49,0,0,0,55,4.92a4.2,4.2,0,0,1,1.54.84A1.48,1.48,0,0,1,57,6.81Z"/></g></g></svg>